<svg xmlns="http://www.w3.org/2000/svg" width="56" height="56" fill="none"><g clip-path="url(#a)"><path fill="#FAC600" d="m40.43 20.95.27-.89a3.02 3.02 0 0 0-2.77-1.82h-2.65a3.02 3.02 0 0 0-3 2.71h8.15Z"/><path fill="#FE9901" d="M35.6 20.95v-4.92a.61.61 0 0 0-.62-.6H27.5a.61.61 0 0 0-.61.6v4.92h8.7Z"/><path fill="#FB8801" d="M29.92 20.95v-4.92c0-.33.27-.6.6-.6h-3.01a.61.61 0 0 0-.61.6v4.92h3.02Z"/><path fill="#80D261" d="M15.89 20.95h7.53a4.04 4.04 0 0 0-7.81-.9l.28.9Z"/><path fill="#68CA44" d="M15.89 20.95h1.97c.18-1.59 1.29-2.9 2.78-3.38a4.04 4.04 0 0 0-5.03 2.47l.28.91Z"/><path fill="#00A7D3" d="M28.55 20.95a4.04 4.04 0 0 0-7.71 0h7.71Z"/><path fill="#0096D3" d="M23.59 20.95a4.05 4.05 0 0 1 2.48-2.6 4.03 4.03 0 0 0-5.23 2.6h2.75Z"/><path fill="#D8ECFE" d="M14.87 5.97c.25 0 .5.06.7.17.22-.24.39-.55.49-.91.27-1-.1-1.98-.85-2.18-.74-.2-1.57.44-1.84 1.44a2.2 2.2 0 0 0 .08 1.48h1.42Z"/><path fill="#C4E2FF" d="M12.89 5.97h.81c.2-.57-.03-1.32-.6-1.9-.73-.72-1.77-.88-2.31-.33-.55.54-.4 1.58.34 2.31.19.19.4.34.61.45a1.5 1.5 0 0 1 1.15-.53Z"/><path fill="#5A5A5A" d="M12.89 9.08h1.98c.88 0 1.6-.73 1.6-1.61 0-.89-.72-1.61-1.6-1.61h-1.98c-.89 0-1.61.72-1.61 1.6 0 .9.72 1.62 1.6 1.62Z"/><path fill="#444" d="M13.12 7.47c0-.89.73-1.61 1.61-1.61H12.9c-.89 0-1.61.72-1.61 1.6 0 .9.72 1.62 1.6 1.62h1.85c-.88 0-1.6-.73-1.6-1.61Z"/><path fill="#D8ECFE" d="M46.04 25.71c.22-.12.47-.2.74-.2h1.45c.16-.4.2-.9.05-1.41-.27-1-1.1-1.64-1.84-1.44-.74.2-1.12 1.18-.85 2.18.1.34.25.64.45.87Z"/><path fill="#C4E2FF" d="M50.86 23.35c-.54-.54-1.58-.39-2.31.34-.55.55-.77 1.27-.63 1.82h.84c.48 0 .91.23 1.19.58.2-.1.4-.25.57-.42.73-.74.89-1.77.34-2.32Z"/><path fill="#5A5A5A" d="M48.76 28.62h-1.98c-.88 0-1.6-.72-1.6-1.6 0-.9.72-1.62 1.6-1.62h1.98c.89 0 1.61.73 1.61 1.61 0 .89-.72 1.61-1.6 1.61Z"/><path fill="#444" d="M47.03 27.01c0-.88.73-1.6 1.61-1.6h-1.86c-.88 0-1.6.72-1.6 1.6 0 .89.72 1.61 1.6 1.61h1.86c-.88 0-1.6-.72-1.6-1.6Z"/><path fill="#FFE5C2" d="M55.63 29.18a.82.82 0 0 0-1.14.24l-3.7 5.63h-9.13v8.89h3.05c.28 0 .5.22.5.5v7.02h6.85V36.1l3.8-5.8a.82.82 0 0 0-.23-1.13Z"/><path fill="#FED2A4" d="M44.35 43.83v-7.96c0-.46.37-.82.82-.82h-3.5v8.78h2.68Z"/><path fill="#FFB392" d="M32.95 51.46v-7.02c0-.28.22-.5.5-.5h8.32V21.79l2.8-9.06a.82.82 0 1 0-1.56-.49l-2.66 8.6H15.97l-2.66-8.6a.82.82 0 0 0-1.57.49l2.8 9.06v29.67h18.4Z"/><path fill="#FFA381" d="M14.54 21.79v7.88H17c.25 0 .4.28.28.5l-1.9 3.28c1.36.01 2.65.38 3.76 1.03V20.85h-3.17l-2.66-8.6a.82.82 0 0 0-1.57.48l2.8 9.06Z"/><path fill="#838383" d="M13.5 33.56h1.83l1.95-3.4a.33.33 0 0 0-.28-.49h-5.17a.33.33 0 0 0-.28.5l1.96 3.39Z"/><path fill="#5A5A5A" d="M13.5 33.56h1.83l.21-.38-1.74-3.01a.33.33 0 0 1 .28-.5h-2.25a.33.33 0 0 0-.28.5l1.96 3.39Z"/><path fill="#5A5A5A" d="M4.47 51.46h14.27l-.16-.18a2.3 2.3 0 0 1-.5-2.12l2.25-8.34a6.4 6.4 0 0 1 1.83-3.03 7.54 7.54 0 0 0-6.83-4.34H13.5a7.54 7.54 0 0 0-7.28 5.58l-2.6 9.64a2.77 2.77 0 0 0 .84 2.79Z"/><path fill="#444" d="M4.47 51.46h3.7a2.77 2.77 0 0 1-.84-2.8l2.6-9.63a7.54 7.54 0 0 1 6.34-5.52c-.31-.04-.62-.06-.94-.06H13.5a7.54 7.54 0 0 0-7.28 5.58l-2.6 9.64a2.77 2.77 0 0 0 .84 2.79Z"/><path fill="#838383" d="M26.54 36.06h1.56l1.67-2.88a.33.33 0 0 0-.29-.5h-4.32a.33.33 0 0 0-.29.5l1.67 2.88Z"/><path fill="#5A5A5A" d="M26.54 36.06h1.56l.23-.4-1.44-2.48a.33.33 0 0 1 .29-.5h-2.02a.33.33 0 0 0-.29.5l1.67 2.88Z"/><path fill="#5A5A5A" d="M32.95 51.46v-7.02c0-.28.22-.5.5-.5h1.82l-.85-3.16a6.53 6.53 0 0 0-6.3-4.83h-1.58a6.53 6.53 0 0 0-6.31 4.84l-2.25 8.35a2.4 2.4 0 0 0 .62 2.32h14.35Z"/><path fill="#444" d="M18.6 51.46h3.65a2.4 2.4 0 0 1-.62-2.32l2.25-8.35a6.53 6.53 0 0 1 5.27-4.75 6.55 6.55 0 0 0-1.04-.09h-1.57a6.53 6.53 0 0 0-6.31 4.84l-2.25 8.35a2.4 2.4 0 0 0 .62 2.32Z"/><path fill="#FD4755" d="M45.32 51.46v-7.02a.61.61 0 0 0-.6-.61H33.44a.61.61 0 0 0-.61.6v7.03h12.48Z"/><path fill="#FB2B3A" d="M36.07 51.46v-7.02c0-.34.28-.61.62-.61h-3.24a.61.61 0 0 0-.61.6v7.03h3.23Z"/><path fill="#838383" d="M53.22 52.99H1.55a.82.82 0 1 1 0-1.64h51.67a.82.82 0 1 1 0 1.64Z"/><path fill="#C4E2FF" d="M10.61 25.78a.82.82 0 0 1-.82-.82v-.43a.82.82 0 1 1 1.65 0v.43c0 .46-.37.82-.83.82Zm0-3.17a.82.82 0 0 1-.82-.82v-.44a.82.82 0 1 1 1.65 0v.44c0 .46-.37.82-.83.82Zm-.43-3.1a.82.82 0 0 1-.73-.45l-.17-.3a.82.82 0 0 1 1.36-.9c.1.15.2.3.27.46a.82.82 0 0 1-.73 1.19Zm-2.36-1.99a.82.82 0 0 1-.24-.04 3.2 3.2 0 0 0-.34-.08.82.82 0 0 1 .3-1.61c.18.03.35.08.52.13a.82.82 0 0 1-.24 1.6Zm-3.15-.22h-.12a5.26 5.26 0 0 1-.5-.1.82.82 0 1 1 .38-1.6l.35.07a.82.82 0 0 1-.11 1.63Zm-2.74-1.47a.82.82 0 0 1-.61-.28 5.32 5.32 0 0 1-.32-.4.82.82 0 1 1 1.33-.96l.22.28a.82.82 0 0 1-.62 1.36Zm-1.11-2.9a.82.82 0 0 1-.82-.81v-.07c0-.15 0-.3.02-.45a.82.82 0 1 1 1.63.14v.36c0 .45-.37.82-.82.83H.82ZM1.86 10a.82.82 0 0 1-.62-1.35c.1-.13.22-.26.35-.38a.82.82 0 1 1 1.14 1.17l-.24.26c-.16.2-.4.3-.63.3Zm2.7-1.54a.82.82 0 0 1-.13-1.63l.51-.06a.82.82 0 1 1 .1 1.63 3.66 3.66 0 0 0-.48.06Zm3.6-.06h-.43a.82.82 0 1 1 0-1.64h.44a.82.82 0 1 1 0 1.64Z"/></g><defs><clipPath id="a"><path fill="#fff" d="M0 0h56v56H0z"/></clipPath></defs></svg>