<svg xmlns="http://www.w3.org/2000/svg" width="56" height="56" fill="none"><path fill="#6DC82A" d="M30.94 23.11c-.42.45-1.02.69-1.63.65-.21-.02-5.26-.36-10.43-3.15C14 17.98 8.1 12.64 7.76 2.15c-.02-.57.2-1.13.6-1.53C8.99 0 9.72 0 10.03 0c.22 0 5.36.04 10.66 3.22a21 21 0 0 1 6.8 6.52 26.8 26.8 0 0 1 4.02 11.7c.07.62-.13 1.23-.56 1.67Z"/><path fill="#5EAC24" d="M27.55 9.84c-.87 1.6-1.6 3.4-2.13 5.44a50.6 50.6 0 0 0-1.79 7.32c3.15.98 5.53 1.15 5.68 1.16a2.07 2.07 0 0 0 2.19-2.31 26.87 26.87 0 0 0-3.95-11.61Z"/><path fill="#4E901E" d="m29.17 19.56-4.46-4.35-1.18-5.86a.86.86 0 1 0-1.68.34l.68 3.4-2.46-2.4-1.2-5.94a.86.86 0 0 0-1.67.34l.7 3.48-5.75-5.6a.86.86 0 0 0-1.2 1.23l6.32 6.16-4.4-.08a.86.86 0 0 0-.03 1.72l6.22.1 2.93 2.86-4.47-.08a.86.86 0 0 0-.03 1.72l6.29.1 4.19 4.1a.85.85 0 0 0 1.21-.02.86.86 0 0 0-.01-1.22Z"/><path fill="#91DC5A" d="M51.17.65A2.07 2.07 0 0 0 49.53 0c-.2.02-5.26.36-10.43 3.15-3.97 2.14-8.6 6.07-10.38 13.1-.97 2.86-3.11 10.62-2.61 22.3a1.88 1.88 0 1 0 3.75-.16c-.25-6.05.24-11 .89-14.65 1.44-.08 5.74-.55 10.16-3.2a21 21 0 0 0 6.8-6.52 26.8 26.8 0 0 0 4.01-11.7 2.07 2.07 0 0 0-.55-1.67Z"/><path fill="#5EAC24" d="M48.47 2.99a.86.86 0 0 0-1.22-.02l-5.74 5.6.7-3.48a.86.86 0 0 0-1.68-.34l-1.2 5.94-2.45 2.4.68-3.4a.86.86 0 0 0-1.68-.34l-1.18 5.86-4.46 4.35a.86.86 0 1 0 1.2 1.23l4.19-4.09 6.29-.1a.86.86 0 0 0-.01-1.72h-.02l-4.47.08 2.93-2.86 6.22-.1a.86.86 0 0 0-.01-1.72h-.02l-4.4.08 6.31-6.16a.86.86 0 0 0 .02-1.21Z"/><path fill="#CC7400" d="M49.13 44.86a4.5 4.5 0 0 0-2.36.66 8.1 8.1 0 0 0-8.94-5.64 10.72 10.72 0 0 0-19.66 0 8.1 8.1 0 0 0-8.94 5.64 4.51 4.51 0 1 0 1 6.86 8.1 8.1 0 0 0 12.56 1.16 10.67 10.67 0 0 0 10.42 0 8.08 8.08 0 0 0 12.56-1.16 4.5 4.5 0 0 0 7.87-3c0-2.5-2.02-4.52-4.51-4.52Z"/><path fill="#AA6100" d="M33.9 37.83c1.06 0 2.09.16 3.06.45a10.71 10.71 0 0 0-18.79 1.6 8.1 8.1 0 0 0-8.94 5.64 4.51 4.51 0 1 0 1 6.86 8.1 8.1 0 0 0 12.56 1.16c.68.37 1.4.68 2.14.9a10.72 10.72 0 0 1 8.96-16.6Z"/><path fill="#AA6100" d="M32.26 48a1.94 1.94 0 1 0 0-3.9 1.94 1.94 0 0 0 0 3.9ZM40.1 52.57a1.94 1.94 0 1 0 0-3.89 1.94 1.94 0 0 0 0 3.89ZM38.9 44.72a.75.75 0 1 0 0-1.5.75.75 0 0 0 0 1.5ZM28 52.12a.75.75 0 1 0 0-1.5.75.75 0 0 0 0 1.5ZM30.32 41.93a.75.75 0 1 0 0-1.5.75.75 0 0 0 0 1.5ZM46.41 48.74a.75.75 0 1 0 0-1.5.75.75 0 0 0 0 1.5Z"/><path fill="#CC7400" d="M42.05 36.64a1.94 1.94 0 1 0 0-3.89 1.94 1.94 0 0 0 0 3.89ZM46.41 39.79a.75.75 0 1 0 0-1.5.75.75 0 0 0 0 1.5ZM46.41 36.2a.75.75 0 1 0 0-1.5.75.75 0 0 0 0 1.5Z"/><path fill="#AA6100" d="M12.3 35.95a1.94 1.94 0 1 0 0-3.88 1.94 1.94 0 0 0 0 3.88ZM9.08 39.04a.75.75 0 1 0 0-1.5.75.75 0 0 0 0 1.5Z"/></svg>