<svg xmlns="http://www.w3.org/2000/svg" width="56" height="56" fill="none"><g clip-path="url(#a)"><path fill="#DF4D60" d="M46.67 26.13v6.54c0 8.49-9.34 14-16.4 9.76l-5.6-3.37a5.49 5.49 0 0 0-2.88-.8 5.82 5.82 0 0 0-3.59.94 5.7 5.7 0 0 1-8.87-4.67V28c0 1.2.4.89 1.11 1.87a5.6 5.6 0 0 0 4.67 2.22c2.92 0 3.24-1.87 6.16-1.87 1.18-.08 2.35.2 3.37.8l5.6 2.98c3.93 2.36 8.87 1.96 13.12-2.3 2.06-2 3.3-2.47 3.3-5.57Z"/><path fill="#FB7B76" d="M46.67 26.13c0 8.82-9.6 13.85-16.4 9.77l-5.6-3.37a5.82 5.82 0 0 0-3.39-.8c-2.92 0-3.24 1.87-6.16 1.87A5.6 5.6 0 0 1 9.33 28v-.93c0-9.34 12.14-14.94 21.47-14.94 10.27 0 15.87 6.28 15.87 14Z"/><path fill="#fff" d="M29.87 16.8a.93.93 0 1 1 0-1.87h.93a.93.93 0 1 1 0 1.87h-.93ZM13.68 25.2a.93.93 0 0 1-.85-1.32c2.08-4.6 8.13-7.36 13.07-8.4a.95.95 0 1 1 .4 1.87c-5.7 1.2-10.33 4.09-11.8 7.36a.93.93 0 0 1-.82.49Z"/><path fill="#F5EFCA" d="M36.4 27.07a3.73 3.73 0 1 0 0-7.47 3.73 3.73 0 0 0 0 7.47Z"/><path fill="#E64C3C" d="M28 56a28 28 0 1 1 0-56 28 28 0 0 1 0 56Zm0-54.13a26.13 26.13 0 1 0 0 52.26 26.13 26.13 0 0 0 0-52.26Z"/><path fill="#E64C3C" d="M47.14 48.08a.93.93 0 0 1-.66-.27L8.21 9.54a.94.94 0 1 1 1.31-1.35l38.27 38.27a.93.93 0 0 1 0 1.33.93.93 0 0 1-.65.29Z"/></g><defs><clipPath id="a"><path fill="#fff" d="M0 0h56v56H0z"/></clipPath></defs></svg>