<svg xmlns="http://www.w3.org/2000/svg" width="52" height="52" fill="none"><g clip-path="url(#a)"><path fill="#D8ECFE" d="M26.64 46.17a23.08 23.08 0 1 0 0-46.17 23.08 23.08 0 0 0 0 46.17Z"/><path fill="#C4E2FF" d="M49.72 23.08a23.08 23.08 0 0 1-40.2 15.49 23.08 23.08 0 0 0 32.6-32.6 23.03 23.03 0 0 1 7.6 17.11Z"/><path fill="#B3DAFE" d="M26.64 39.17a16.1 16.1 0 1 0 0-32.18 16.1 16.1 0 0 0 0 32.18Z"/><path fill="#8AC9FE" d="M42.73 23.08a16.1 16.1 0 0 1-28.26 10.53 16.1 16.1 0 0 0 22.7-22.7c3.4 2.96 5.56 7.31 5.56 12.17Z"/><path fill="#685E68" d="m14.72 51.98-.35-.04a1.85 1.85 0 0 1-1.59-2.08l3.13-23.7 4.01.53-3.13 23.7a1.85 1.85 0 0 1-2.07 1.6Z"/><path fill="#554E56" d="M19.92 26.7 16.8 50.33a1.9 1.9 0 0 1-2.14 1.64l-.23-.03c-.4-.06-.76-.23-1.04-.49a1.9 1.9 0 0 0 1.42-1.6l3.1-23.43 2.01.26Z"/><path fill="#E2DEE2" d="m20.24 8.8-4.03-.53a.54.54 0 0 0-.6.47l-1.22 9.16a3.54 3.54 0 0 0 1.47 3.4c.4.26.6.74.53 1.21l-.48 3.65 4.01.53.49-3.65c.06-.47.37-.88.82-1.03a3.54 3.54 0 0 0 2.3-2.9l1.21-9.17a.54.54 0 0 0-.46-.6l-4.04-.54Z"/><path fill="#CBC4CC" d="m24.74 9.94-1.2 9.17a3.54 3.54 0 0 1-2.3 2.9c-.46.15-.77.56-.83 1.03l-.49 3.65-2.01-.26.51-3.99c.06-.47.38-.88.83-1.03a3.54 3.54 0 0 0 2.3-2.9l1.2-9.17c.02-.07.01-.14 0-.2l1.53.2c.3.03.5.3.46.6Z"/><path fill="#B5ADB6" d="m19.47 8.7-1.09 8.23a.78.78 0 1 1-1.55-.2l1.08-8.24 1.56.21ZM22.57 9.11l-1.08 8.23a.78.78 0 1 1-1.56-.2l1.09-8.24 1.55.21Z"/><path fill="#685E68" d="m38.87 51.95-.35.04a1.85 1.85 0 0 1-2.04-1.65l-2.54-23.76 4.03-.43L40.5 49.9a1.85 1.85 0 0 1-1.64 2.04Z"/><path fill="#554E56" d="m38.81 51.96-.23.02c-.41.04-.8-.04-1.13-.23a1.9 1.9 0 0 0 1.02-1.89l-2.52-23.5 2.02-.21 2.53 23.71a1.9 1.9 0 0 1-1.69 2.1Z"/><path fill="#E2DEE2" d="m37.97 26.15-4.03.43-.31-2.92a1.89 1.89 0 0 0-.66-1.23l-.84-.72c-.45-.38-.7-.95-.66-1.53L32.1 6.7a1.89 1.89 0 0 1 3.76-.1l2.1 19.54Z"/><path fill="#CBC4CC" d="m37.97 26.15-2.02.21-2.09-19.54a1.89 1.89 0 0 0-1.04-1.5 1.88 1.88 0 0 1 1.18-.4c.95 0 1.77.71 1.88 1.68l2.09 19.55Z"/><path fill="#FDB441" d="M44.95 3.06c-.4 1.27-1.44 3.58-3.85 4.48-.2.08-.2.36 0 .44 2.41.9 3.45 3.2 3.85 4.48.06.21.37.21.44 0 .4-1.27 1.43-3.58 3.84-4.48.2-.08.2-.36 0-.44-2.41-.9-3.45-3.2-3.84-4.48-.07-.21-.38-.21-.44 0Z"/><path fill="#FEA613" d="M49.23 7.98c-2.41.9-3.45 3.2-3.84 4.48a.23.23 0 0 1-.44 0 8.66 8.66 0 0 0-.98-2.1c.45-.95.38-1.88 1.72-2.38.2-.08.2-.36 0-.44-1.34-.5-1.27-1.43-1.72-2.38.5-.76.8-1.53.98-2.1a.23.23 0 0 1 .44 0c.4 1.27 1.43 3.58 3.84 4.48.2.08.2.36 0 .44Z"/><path fill="#FDB441" d="M5.44 40.16c-.31 1-1.13 2.84-3.05 3.55-.15.06-.15.29 0 .35 1.92.71 2.74 2.54 3.05 3.55.06.17.3.17.35 0 .32-1 1.14-2.84 3.05-3.55.16-.06.16-.29 0-.35-1.91-.71-2.73-2.55-3.05-3.55-.05-.17-.3-.17-.35 0Z"/><path fill="#FEA613" d="M8.84 44.06c-1.91.71-2.73 2.54-3.05 3.55a.18.18 0 0 1-.35 0 6.87 6.87 0 0 0-.77-1.66c.35-.76.3-1.5 1.37-1.9a.18.18 0 0 0 0-.34c-1.07-.4-1.02-1.14-1.37-1.89.4-.6.63-1.22.77-1.66.06-.18.3-.18.35 0 .32 1 1.14 2.84 3.05 3.55.16.06.16.29 0 .35Z"/></g><defs><clipPath id="a"><path fill="#fff" d="M0 0h52v52H0z"/></clipPath></defs></svg>