<svg xmlns="http://www.w3.org/2000/svg" width="44" height="44" fill="none"><g clip-path="url(#a)"><path fill="#FFD24F" d="M30.26 7.27c-.8-3.79-3.1-6.37-4.13-6.89-2.32-1.16-3.1.7-4.13.7-1.03 0-1.8-1.86-4.13-.7-1.03.52-3.33 3.1-4.13 6.89-.8 3.78 8.26.69 8.26.69s9.06 3.1 8.26-.7Z"/><path fill="#FFBE1E" d="M22 18.59c8.74 0 15.83-2.62 15.83-5.85 0-3.24-7.09-5.86-15.83-5.86S6.17 9.5 6.17 12.74c0 3.23 7.09 5.85 15.83 5.85Z"/><path fill="#FFE1B2" d="M12.68 16.97c-1.03-.26-1.7.3-1.7 1.38 0 1.43 1.38 4.95 2.84 2.75s-1.14-4.13-1.14-4.13ZM31.14 16.97c1.13-.26 1.86.3 1.86 1.38 0 1.43-1.51 4.95-3.1 2.75-1.6-2.2 1.24-4.13 1.24-4.13Z"/><path fill="#FFD7A3" d="M14.44 29.49c1.54-1 1.36-3.94 1.36-4.63h12.4c0 .69-.2 3.64 1.34 4.63L22 37.94l-7.56-8.45Z"/><path fill="#FDC88E" d="m26.82 32.43 2.72-2.94c-1.54-1-1.34-3.94-1.34-4.63H15.8c.9 2.56 6.77 6.94 11.02 7.57Z"/><path fill="#FF6953" d="M37.83 44c1.14 0 2.07-.92 2.07-2.07v-4.1a8.06 8.06 0 0 0-5.25-7.18l-4.3-1.38c-2.32 1.77-5.63 4.19-8.35 4.19-2.72 0-6.03-2.42-8.35-4.2l-4.3 1.39a8.06 8.06 0 0 0-5.25 7.18v4.1c0 1.15.93 2.07 2.07 2.07h31.66Z"/><path fill="#E95F43" d="M39.85 42.36h-1.07v-1.45h1.12v-1.05h-1.12V38.4h1.12v-.58l-.02-.47h-1.1V35.9h.81c-.1-.36-.24-.7-.4-1.05h-.4v-.76a8.66 8.66 0 0 0-1.39-1.74h-1.12v-.91a6.57 6.57 0 0 0-1.63-.8l-2.47-.8h-.9v-.28l-.93-.3-.12.09v.5h-.66c-.58.43-1.2.87-1.84 1.3v1.2h-1.45v-.3c-1.22.68-2.46 1.2-3.63 1.35h.07v1.45h-1.44V33.4h.07a10.43 10.43 0 0 1-3.63-1.36v.3h-1.45v-1.19c-.64-.43-1.26-.87-1.84-1.3h-.66v-.5l-.12-.1-.93.3v.3h-.9l-2.47.79c-.57.18-1.12.45-1.63.8v.9H6.6c-.53.52-1 1.11-1.38 1.75v.76h-.4c-.17.34-.3.7-.41 1.05h.8v1.45H4.13l-.02.47v.58h1.12v1.45H4.1v1.05h1.12v1.45H4.15c.08.41.3.77.58 1.05h.49v.35c.28.15.6.24.95.24h.1v-.59h1.45V44h1.05v-.59h1.45V44h1.05v-.59h1.45V44h1.05v-.59h1.45V44h1.05v-.59h1.45V44h1.06v-.59h1.44V44h1.06v-.59h1.44V44h1.06v-.59h1.45V44h1.05v-.59h1.45V44h1.05v-.59h1.45V44h1.05v-.59h1.45V44h1.05v-.59h1.45V44h1.05v-.59h1.45V44h.1c.35 0 .67-.1.96-.24v-.35h.48c.29-.28.5-.64.58-1.05Zm-32.13 0H6.27v-1.45h1.45v1.45Zm0-2.5H6.27v-1.45h1.45v1.45Zm0-2.5H6.27V35.9h1.45v1.45Zm0-2.5H6.27V33.4h1.45v1.45Zm2.5 7.5H8.77v-1.45h1.45v1.45Zm0-2.5H8.77v-1.45h1.45v1.45Zm0-2.5H8.77V35.9h1.45v1.45Zm0-2.5H8.77V33.4h1.45v1.45Zm0-2.5H8.77V30.9h1.45v1.45Zm2.5 10h-1.45v-1.45h1.45v1.45Zm0-2.5h-1.45v-1.45h1.45v1.45Zm0-2.5h-1.45V35.9h1.45v1.45Zm0-2.5h-1.45V33.4h1.45v1.45Zm0-2.5h-1.45V30.9h1.45v1.45Zm2.5 10h-1.45v-1.45h1.45v1.45Zm0-2.5h-1.45v-1.45h1.45v1.45Zm0-2.5h-1.45V35.9h1.45v1.45Zm0-2.5h-1.45V33.4h1.45v1.45Zm0-2.5h-1.45V30.9h1.45v1.45Zm2.5 10h-1.45v-1.45h1.45v1.45Zm0-2.5h-1.45v-1.45h1.45v1.45Zm0-2.5h-1.45V35.9h1.45v1.45Zm0-2.5h-1.45V33.4h1.45v1.45Zm2.5 7.5h-1.44v-1.45h1.44v1.45Zm0-2.5h-1.44v-1.45h1.44v1.45Zm0-2.5h-1.44V35.9h1.44v1.45Zm0-2.5h-1.44V33.4h1.44v1.45Zm2.5 7.5h-1.44v-1.45h1.44v1.45Zm0-2.5h-1.44v-1.45h1.44v1.45Zm0-2.5h-1.44V35.9h1.44v1.45Zm2.5 5h-1.44v-1.45h1.44v1.45Zm0-2.5h-1.44v-1.45h1.44v1.45Zm0-2.5h-1.44V35.9h1.44v1.45Zm0-2.5h-1.44V33.4h1.44v1.45Zm2.5 7.5h-1.44v-1.45h1.45v1.45Zm0-2.5h-1.44v-1.45h1.45v1.45Zm0-2.5h-1.44V35.9h1.45v1.45Zm0-2.5h-1.44V33.4h1.45v1.45Zm2.5 7.5h-1.44v-1.45h1.45v1.45Zm0-2.5h-1.44v-1.45h1.45v1.45Zm0-2.5h-1.44V35.9h1.45v1.45Zm0-2.5h-1.44V33.4h1.45v1.45Zm0-2.5h-1.44V30.9h1.45v1.45Zm2.5 10h-1.44v-1.45h1.45v1.45Zm0-2.5h-1.44v-1.45h1.45v1.45Zm0-2.5h-1.44V35.9h1.45v1.45Zm0-2.5h-1.44V33.4h1.45v1.45Zm0-2.5h-1.44V30.9h1.45v1.45Zm2.51 10h-1.45v-1.45h1.45v1.45Zm0-2.5h-1.45v-1.45h1.45v1.45Zm0-2.5h-1.45V35.9h1.45v1.45Zm0-2.5h-1.45V33.4h1.45v1.45Zm0-2.5h-1.45V30.9h1.45v1.45Zm2.5 10h-1.45v-1.45h1.45v1.45Zm0-2.5h-1.45v-1.45h1.45v1.45Zm0-2.5h-1.45V35.9h1.45v1.45Zm0-2.5h-1.45V33.4h1.45v1.45Z"/><path fill="#FFBE1E" d="m22 33.46-2.87 2.87c-.3.3-.8.26-1.05-.08l-5.03-6.92 1.6-1.6a.69.69 0 0 1 .95-.03l6.4 5.76ZM22 33.46l2.87 2.87c.3.3.8.26 1.05-.08l5.03-6.92-1.6-1.6a.69.69 0 0 0-.95-.03L22 33.46Z"/><path fill="#FFE1B2" d="M12.8 12.32c-.17.97-.18 2.14-.18 3.53 0 5.52 3.1 12.4 9.38 12.4 6.29 0 9.38-6.88 9.38-12.4 0-1.39-.01-2.56-.17-3.53A29.48 29.48 0 0 0 22 10.96c-3.48 0-6.69.5-9.2 1.36Z"/><path fill="#A7795E" d="M31.41 13.43 30.27 12v.69c.17 6.23-2.05 8.94-2.05 8.94l-2.83.32c-2.2.25-4.43.25-6.63 0l-2.83-.32s-2.22-2.7-2.05-8.94v-.7s-.6.73-1.14 1.44c-.15.61-.38 1.28-.38 2.01 0 5.52 3.3 13.47 9.71 13.47 6.42 0 9.57-7.95 9.57-13.47 0-.73-.08-1.4-.23-2Zm-11.38 9.84h4.1c.56 0 1.04.34 1.25.83a8.5 8.5 0 0 1-3.23.55c-1.38 0-2.6-.24-3.35-.6.23-.46.69-.78 1.23-.78Z"/><path fill="#543D38" d="M22.37 22.66c0-.91-.89-1.12-1.47-.9-1.06.4-2.23 1.53-3.22.84 0 0 .34 1.45.92 1.45 1.16 0 3.77.15 3.77-1.4Z"/><path fill="#543D38" d="M22.09 22.66c0-.91.88-1.12 1.46-.9 1.06.4 2.24 1.53 3.23.84 0 0-.35 1.45-.93 1.45-1.16 0-3.76.15-3.76-1.4Z"/><path fill="#C55F54" d="m33.7 30.25-2.75-.88v8.47c0 .32-.21.6-.52.67-2.33.58-5.25.92-8.43.92-3.18 0-6.1-.34-8.43-.92a.68.68 0 0 1-.52-.67v-8.47l-2.75.88V44h23.4V30.25Z"/><path fill="#543D38" d="m12.4 17.06 1.87.34s.72-4.07 1.11-5.76c-1.01.2-1.97.45-2.84.73a22.35 22.35 0 0 0-.13 4.7ZM31.6 17.06l-1.87.34s-.72-4.07-1.11-5.76c1.01.2 1.97.45 2.84.73a22.35 22.35 0 0 1 .13 4.7ZM26.04 13.32l1.66-1.88a32.86 32.86 0 0 0-9.27-.3c1.08-.07 5.33.5 7.61 2.18Z"/></g><defs><clipPath id="a"><path fill="#fff" d="M0 0h44v44H0z"/></clipPath></defs></svg>